<svg xmlns="http://www.w3.org/2000/svg" viewBox="0 0 64 64"><defs><style>.cls-1{fill:#dd5903;}.cls-2{fill:none;stroke:#fff;stroke-linecap:round;stroke-linejoin:round;stroke-width:1.22px;}.cls-3{fill:#fff;}</style></defs><title>Asset 4</title><g id="Layer_2" data-name="Layer 2"><g id="OBJECTS"><rect class="cls-1" width="64" height="64" rx="32"/><line class="cls-2" x1="11.05" y1="45.94" x2="52.95" y2="45.94"/><path class="cls-3" d="M52,42A20,20,0,0,0,12,42Z"/><path class="cls-3" d="M33.38,23.92H30.62a1.86,1.86,0,0,1-1.86-1.86h0a1.86,1.86,0,0,1,1.86-1.86h2.76a1.86,1.86,0,0,1,1.86,1.86h0A1.86,1.86,0,0,1,33.38,23.92Z"/><path class="cls-3" d="M32.61,19.7H31.39a.82.82,0,0,1-.82-.82h0a.82.82,0,0,1,.82-.82h1.22a.82.82,0,0,1,.82.82h0A.82.82,0,0,1,32.61,19.7Z"/></g></g></svg>