<svg xmlns="http://www.w3.org/2000/svg" viewBox="0 0 200.89 90.55"><defs><style>.cls-1{font-size:12.74px;font-family:PlusJakartaSans-SemiBold, Plus Jakarta Sans;font-weight:600;letter-spacing:0.05em;}.cls-1,.cls-6{fill:#111;}.cls-2{letter-spacing:0.09em;}.cls-3{letter-spacing:0.1em;}.cls-4{letter-spacing:0.09em;}.cls-5,.cls-7{fill:none;stroke:#111;stroke-linecap:round;stroke-linejoin:round;}.cls-5{stroke-width:1.97px;}.cls-7{stroke-width:1.22px;}</style></defs><title>Asset 5</title><g id="Layer_2" data-name="Layer 2"><g id="OBJECTS"><text class="cls-1" transform="translate(22.29 87.49)">F<tspan class="cls-2" x="8.08" y="0">A</tspan><tspan class="cls-3" x="18.04" y="0">ST </tspan><tspan class="cls-4" x="39.12" y="0">F</tspan><tspan class="cls-3" x="47.71" y="0">OOD &amp; RESTRA</tspan></text><line class="cls-5" x1="1.68" y1="82.79" x2="15.83" y2="82.79"></line><line class="cls-5" x1="185.75" y1="82.79" x2="199.9" y2="82.79"></line><line class="cls-5" x1="0.98" y1="19.83" x2="67.53" y2="19.83"></line><line class="cls-5" x1="132.6" y1="19.1" x2="199.14" y2="19.1"></line><path class="cls-6" d="M1.68,37.17v-.86H14.17a13.66,13.66,0,0,1,10.18,4q3.93,4,3.93,11t-3.93,11a13.7,13.7,0,0,1-10.18,4H1.68v-.86H4q.69,0,.69-.57V37.74q0-.57-.69-.57Zm12.49.47H8.71V65h5.46a8.66,8.66,0,0,0,7.08-3.66q2.85-3.68,2.85-10t-2.85-10A8.67,8.67,0,0,0,14.17,37.64Z"></path><path class="cls-6" d="M37.23,64.79V37.74q0-.57-.69-.57H34.23v-.86h10v.86H42q-.69,0-.69.57V64.79a.6.6,0,0,0,.69.67h2.31v.86h-10v-.86h2.31A.6.6,0,0,0,37.23,64.79Z"></path><path class="cls-6" d="M73.37,66.32,54.88,39.74V64.79a.6.6,0,0,0,.69.67h2.31v.86H50.21v-.86h2.31a.6.6,0,0,0,.69-.67V37.74q0-.57-.69-.57H50.21v-.86h7.23L73.28,59V37.83q0-.66-.69-.66H70.28v-.86H78v.86H75.64q-.69,0-.69.57V66.32Z"></path><path class="cls-6" d="M83.65,66.32v-.86H86a.6.6,0,0,0,.69-.67V37.74q0-.57-.69-.57H83.65v-.86H99.24a23.42,23.42,0,0,0,5.46-.43,25.53,25.53,0,0,0-.44,5.43v2.24h-1.14l-.73-4.86q-.11-1-1.38-1H90.68v13h9.89c.39,0,.62-.23.69-.67L101.5,47h.89V55.6h-.89l-.24-3c-.07-.45-.3-.67-.69-.67H90.68V65h11c.85,0,1.31-.35,1.38-1l.73-5.58h1.13V60.6a30.17,30.17,0,0,0,.45,6.15,23.42,23.42,0,0,0-5.46-.43Z"></path><path class="cls-6" d="M134.75,66.32,116.26,39.74V64.79a.59.59,0,0,0,.68.67h2.32v.86h-7.68v-.86h2.32a.6.6,0,0,0,.68-.67V37.74c0-.38-.23-.57-.68-.57h-2.32v-.86h7.23L134.65,59V37.83q0-.66-.69-.66h-2.31v-.86h7.67v.86H137q-.69,0-.69.57V66.32Z"></path><path class="cls-6" d="M148.93,62.74Q145,58.6,145,51.31t3.91-11.43a14.59,14.59,0,0,1,20.36,0q3.92,4.14,3.91,11.43t-3.91,11.43a14.56,14.56,0,0,1-20.36,0ZM152,40.83q-2.82,3.87-2.83,10.48T152,61.79a8.4,8.4,0,0,0,14.14,0Q169,57.94,169,51.31t-2.85-10.48a8.42,8.42,0,0,0-14.14,0Z"></path><path class="cls-6" d="M189.63,66.89a13.75,13.75,0,0,1-6.5-1.72,4.31,4.31,0,0,0-1.47-.52c-.49,0-.75.33-.79,1l-.05.67h-.93v-8h.88a7.43,7.43,0,0,0,2.83,5.41,9.35,9.35,0,0,0,5.66,1.74,6.64,6.64,0,0,0,5-1.72,5.53,5.53,0,0,0,1.7-4c0-2.47-1.47-4.35-4.43-5.62l-5.85-2.52a8.83,8.83,0,0,1-4-3.12,7.47,7.47,0,0,1-1.33-4.26,8.35,8.35,0,0,1,2.41-6q2.41-2.51,6.94-2.5a10.42,10.42,0,0,1,5.45,1.71,3.51,3.51,0,0,0,1.28.53c.43,0,.66-.34.69-1l.05-1h.93v8.24h-.88a7.88,7.88,0,0,0-2.43-5.4,7.42,7.42,0,0,0-5-1.74,6.27,6.27,0,0,0-4.53,1.55,4.78,4.78,0,0,0-1.59,3.52,6,6,0,0,0,1.1,3.55,7.38,7.38,0,0,0,3.27,2.48l5.9,2.52a10.52,10.52,0,0,1,4.45,3.36,7.43,7.43,0,0,1,1.5,4.45,7.57,7.57,0,0,1-2.8,5.86A10.88,10.88,0,0,1,189.63,66.89Z"></path><line class="cls-7" x1="82.07" y1="24.9" x2="119.51" y2="24.9"></line><path class="cls-6" d="M118.63,21.41a17.84,17.84,0,1,0-35.68,0Z"></path><path class="cls-6" d="M102,5.23H99.55a1.66,1.66,0,0,1-1.66-1.66h0a1.67,1.67,0,0,1,1.66-1.66H102a1.67,1.67,0,0,1,1.66,1.66h0A1.66,1.66,0,0,1,102,5.23Z"></path><path class="cls-6" d="M101.34,1.47h-1.1a.74.74,0,0,1-.73-.74h0a.73.73,0,0,1,.73-.73h1.1a.73.73,0,0,1,.73.73h0A.74.74,0,0,1,101.34,1.47Z"></path></g></g></svg>